<svg width="200" height="120" viewBox="0 0 200 120" fill="none" xmlns="http://www.w3.org/2000/svg">
	<rect width="200" height="120" fill="white" />
	<path
		d="M111 49H89C88.4696 49 87.9609 49.2107 87.5858 49.5858C87.2107 49.9609 87 50.4696 87 51V69C87 69.5304 87.2107 70.0391 87.5858 70.4142C87.9609 70.7893 88.4696 71 89 71H111C111.53 71 112.039 70.7893 112.414 70.4142C112.789 70.0391 113 69.5304 113 69V51C113 50.4696 112.789 49.9609 112.414 49.5858C112.039 49.2107 111.53 49 111 49ZM111 51V63.8438L107.741 60.5863C107.556 60.4005 107.335 60.2531 107.092 60.1526C106.85 60.052 106.59 60.0003 106.327 60.0003C106.064 60.0003 105.804 60.052 105.561 60.1526C105.319 60.2531 105.098 60.4005 104.913 60.5863L102.413 63.0863L96.9125 57.5863C96.5375 57.2115 96.029 57.0009 95.4987 57.0009C94.9685 57.0009 94.46 57.2115 94.085 57.5863L89 62.6712V51H111ZM89 65.5L95.5 59L105.5 69H89V65.5ZM111 69H108.329L103.829 64.5L106.329 62L111 66.6725V69ZM102 56.5C102 56.2033 102.088 55.9133 102.253 55.6666C102.418 55.42 102.652 55.2277 102.926 55.1142C103.2 55.0006 103.502 54.9709 103.793 55.0288C104.084 55.0867 104.351 55.2296 104.561 55.4393C104.77 55.6491 104.913 55.9164 104.971 56.2074C105.029 56.4983 104.999 56.7999 104.886 57.074C104.772 57.3481 104.58 57.5824 104.333 57.7472C104.087 57.912 103.797 58 103.5 58C103.102 58 102.721 57.842 102.439 57.5607C102.158 57.2794 102 56.8978 102 56.5Z"
		fill="#BFBFBF" />
</svg>